<?xml version="1.0" encoding="utf-8"?>
<!-- Generator: Adobe Illustrator 18.1.1, SVG Export Plug-In . SVG Version: 6.00 Build 0)  -->
<svg version="1.1" xmlns="http://www.w3.org/2000/svg" xmlns:xlink="http://www.w3.org/1999/xlink" x="0px" y="0px"
	 viewBox="0 0 899.9 352" enable-background="new 0 0 899.9 352" xml:space="preserve">
<g id="Ebene_2">
</g>
<g id="Ebene_3">
	<g>
		<rect y="0" fill="#E30613" width="899.9" height="352"/>
		<path fill="#FFFFFF" d="M773.2,133.3c15.4,0,20.3-6,20.3-13.5c0-7.3-6.4-10.5-15.3-10.5H765l-6.5,24H773.2z M734.3,76.7h46.9
			c30.3,0,52.9,9.5,52.9,38c0,18.1-9.5,34.5-33,41.8l16.5,39.4h-43.4l-12.4-34.6H751l-9.4,34.6h-39.4L734.3,76.7z M619.9,76.7h101.4
			l-8.7,32.6h-61.8l-3.7,13h57.8l-7.5,28h-57.7l-3.7,13H699l-8.7,32.6H587.8L619.9,76.7z M487.1,76.7h37.5l26.9,57.2l15.4-57.2h39.4
			l-32.1,119.2h-35.6l-28.1-59.3l-16,59.3H455L487.1,76.7z M354.4,76.7h37.5l26.5,58.8l15.7-58.8h39.4l-32.1,119.2h-35.6L378.2,135
			l-16.5,60.9h-39.4L354.4,76.7z M239.8,76.7h101.4l-8.7,32.6h-61.8l-3.7,13h57.8l-7.5,28h-57.7l-3.7,13h62.9l-8.7,32.6H207.7
			L239.8,76.7z M133.2,161.1c21.4,0,38.6-7.9,38.6-30c0-14.6-9.7-19.7-24.2-19.7h-8.9l-13.3,49.7H133.2z M108.3,76.7h41.2
			c39.4,0,63.9,15.9,63.9,50.2c0,45.6-35.6,69-82.8,69H76.2L108.3,76.7z"/>
		<g>
			<path fill="#FFFFFF" d="M70.1,223.2h42.8l-3,11.2H79.6l-3.1,11.7h26.6l-3,11.1H73.5l-3.3,12.1H101l-3,11.2H54.7L70.1,223.2z"/>
			<path fill="#FFFFFF" d="M117.4,236.6h12.4L118,280.5h-12.4L117.4,236.6z M121.4,220.8h13.1l-3,11.1h-13.1L121.4,220.8z"/>
			<path fill="#FFFFFF" d="M138.7,236.6h12.4l-1.2,4.6c3.1-2.8,7-5.4,12-5.4c7.9,0,12.9,4.8,12.9,12.8c0,2.5-0.7,5.6-1.5,8.4
				l-6.3,23.6h-12.4l6.5-24.1c0.3-1.2,0.6-2.9,0.6-3.9c0-3.5-2.2-5.4-6.1-5.4c-4.9,0-8.1,3.5-9.5,8.8l-6.6,24.6H127L138.7,236.6z"/>
			<path fill="#FFFFFF" d="M200.1,271.5c3.3,0,6.1-1,9.7-3.5l5.7,7.7c-3.9,3.3-9.4,5.8-16.9,5.8c-12.6,0-20.3-7.4-20.3-19.5
				c0-12.7,10.3-26.2,26-26.2c11.4,0,17.9,7.4,17.9,17.1c0,3.1-0.8,6.6-2.2,10h-30.1C190.5,268.1,193.5,271.5,200.1,271.5z
				 M210.2,255.1c0.2-0.8,0.4-1.8,0.4-2.9c0-3.6-2.1-6.5-7.2-6.5c-5.7,0-10.2,3.8-12.3,9.3H210.2z"/>
			<path fill="#FFFFFF" d="M233.3,236.6h12.4l-2.4,8.8c4.4-6.5,9.5-10.2,16.7-9.7l-3.5,13h-0.7c-8.3,0-14.7,4.7-17.7,16.1l-4.2,15.6
				h-12.4L233.3,236.6z"/>
			<path fill="#FFFFFF" d="M285.9,247.3h-5.2l2.9-10.6h5.2l0.6-2.4c2.5-9.7,8.6-14.1,17.8-14.1c3.5,0,6.5,0.5,8.5,1.2l-2.7,10.3
				c-1.6-0.7-3.7-1.1-5.4-1.1c-3.3,0-5.2,1.6-6.1,4.7l-0.3,1.2h10.6l-2.9,10.6h-10.3l-9,33.2h-12.4L285.9,247.3z"/>
			<path fill="#FFFFFF" d="M309.2,268.6c0-2.5,0.7-5.6,1.5-8.4l6.3-23.6h12.4l-6.5,24.1c-0.3,1.2-0.6,2.9-0.6,3.9
				c0,3.5,2.2,5.4,6.1,5.4c4.9,0,8.1-3.5,9.5-8.8l6.6-24.6H357l-11.7,43.9h-12.4l1.2-4.6c-3.1,2.8-7,5.4-12,5.4
				C314.3,281.4,309.2,276.5,309.2,268.6z M326.4,220.8h12l-3,11.1h-12L326.4,220.8z M343.9,220.8h12l-3,11.1h-12L343.9,220.8z"/>
			<path fill="#FFFFFF" d="M365.4,236.6h12.4l-2.4,8.8c4.4-6.5,9.5-10.2,16.7-9.7l-3.5,13H388c-8.3,0-14.7,4.7-17.7,16.1l-4.2,15.6
				h-12.4L365.4,236.6z"/>
			<path fill="#FFFFFF" d="M407.6,269.6c0-10.2,8.3-15.8,18.9-15.8c4.7,0,8.7,0.8,12.4,2l0.2-0.6c0.2-1,0.5-2,0.5-3.3
				c0-3-2.1-5.2-8.3-5.2c-4.3,0-8.5,1.1-11.7,2.4l-2-9.8c4.5-1.9,10.1-3.1,16.3-3.1c11.8,0,17.8,4.9,17.8,13.5c0,2.3-0.4,4.4-1,6.6
				l-6.5,24.2h-12l1.3-5.1c-3.5,3.8-7.9,5.9-13.1,5.9C412.8,281.4,407.6,276.4,407.6,269.6z M436.8,264l0.3-1.1
				c-2.1-0.8-5.2-1.6-8.2-1.6c-5.2,0-8.9,2.6-8.9,6.9c0,2.7,2.2,4.7,5.7,4.7C430.9,272.8,435.4,268.7,436.8,264z"/>
			<path fill="#FFFFFF" d="M468.6,220.8h12.4l-16,59.8h-12.4L468.6,220.8z"/>
			<path fill="#FFFFFF" d="M490.5,220.8H503l-16,59.8h-12.4L490.5,220.8z"/>
			<path fill="#FFFFFF" d="M521.1,271.5c3.3,0,6.1-1,9.7-3.5l5.7,7.7c-3.9,3.3-9.4,5.8-16.9,5.8c-12.6,0-20.3-7.4-20.3-19.5
				c0-12.7,10.3-26.2,26-26.2c11.4,0,17.9,7.4,17.9,17.1c0,3.1-0.8,6.6-2.2,10h-30.1C511.6,268.1,514.6,271.5,521.1,271.5z
				 M531.3,255.1c0.2-0.8,0.4-1.8,0.4-2.9c0-3.6-2.1-6.5-7.2-6.5c-5.7,0-10.2,3.8-12.3,9.3H531.3z"/>
		</g>
	</g>
</g>
</svg>
